<svg id="utk-svg-foundational"
     class="utk-svg utk-svg-animated utk-svg-animated-burst"
     xmlns="http://www.w3.org/2000/svg"
     viewBox="0 0 123 123">
    <title>competency model: foundational</title>
    <path class="cls-2"
          d="M87.016,53.671c6.4-4.95,5.775-19.961,4.087-28.664a2.068,2.068,0,0,0-3.554-.8c-8.8,10.22-24.436,11.657-24.169,21.478a6.236,6.236,0,0,0,2.221,4.95A36.465,36.465,0,0,1,80.707,40.5a.318.318,0,0,0,.177-.08,51.05,51.05,0,0,0-8.619,7.824,48.909,48.909,0,0,0-12.8,19.642,47.788,47.788,0,0,0-5.331-9.1A46.929,46.929,0,0,0,43.387,47.044c.089,0,.089,0,.178.08a30.8,30.8,0,0,1,12.706,9.1,5.791,5.791,0,0,0,2.044-4.232c.533-8.383-12.8-9.98-20.082-19a1.8,1.8,0,0,0-3.11.638c-1.688,7.426-2.666,20.2,2.666,24.592,2.843,2.315,7.642,2.714,11.729,1.676,3.554,4.472,6.753,10.3,7.819,15.889a2.3,2.3,0,0,0,2.222,1.756h.089a2.164,2.164,0,0,0,2.221-1.6C64.357,66.126,68,59.739,72.088,54.868,76.975,56.545,83.372,56.545,87.016,53.671Z"/>
    <path class="cls-1"
          d="M54.934,81.615a38.44,38.44,0,0,0-4.709-5.429,44.173,44.173,0,0,1-4.443-4.87,2.737,2.737,0,0,0-3.465-.559c-1.333.718-2.311,2.315-.889,4.79.711,1.358,2.488,3.034,4.354,4.871l.356.319a.9.9,0,0,1-.178,1.437,1.168,1.168,0,0,1-1.333-.159,1.126,1.126,0,0,1-.267-.32c-1.421-1.437-2.754-2.714-3.732-3.912-.355-.479-.71-.958-.977-1.357-1.066-1.917-1.155-3.593-.533-4.871a35.131,35.131,0,0,1-2.222-4.87c-1.155-3.353-6.308-2.555-6.131,1.118.178,3.593,1.6,15.808,5.6,19.88a51.761,51.761,0,0,0,8.442,6.547,1.751,1.751,0,0,1,.888,1.438v2.475A1.485,1.485,0,0,0,47.2,99.5h9.6a1.485,1.485,0,0,0,1.511-1.357c0-1.517-.089-3.913-.267-6.068A26.36,26.36,0,0,0,54.934,81.615Z"/>
    <path class="cls-1"
          d="M83.02,66.605a50.381,50.381,0,0,1-2.222,4.87,5.464,5.464,0,0,1-.533,4.871,12.91,12.91,0,0,1-.977,1.357,44.091,44.091,0,0,1-3.732,3.912,1.126,1.126,0,0,0-.267.32,1.064,1.064,0,0,1-1.333.159.9.9,0,0,1-.177-1.437l.355-.319c1.866-1.836,3.643-3.513,4.354-4.87,1.422-2.476.444-4.072-.889-4.791a2.754,2.754,0,0,0-3.465.559,44.074,44.074,0,0,1-4.443,4.87,38.387,38.387,0,0,0-4.709,5.43,23.944,23.944,0,0,0-2.933,10.3c-.177,2.156-.266,4.551-.266,6.068a1.425,1.425,0,0,0,1.51,1.357h9.6A1.484,1.484,0,0,0,74.4,97.9V95.428a1.748,1.748,0,0,1,.888-1.437,47.819,47.819,0,0,0,8.442-6.547c3.909-4.152,5.331-16.288,5.6-19.881C89.328,64.05,84.264,63.172,83.02,66.605Z"/>
</svg>
