<svg id="Layer_1" data-name="Layer 1" xmlns="http://www.w3.org/2000/svg" viewBox="0 0 123 123">
    <title>competency</title>
    <path class="cls-2"
          d="M34.775,73a2.423,2.423,0,0,0,2.448,2.284h7.344A2.351,2.351,0,0,0,46.933,73l.734-9.812a5.748,5.748,0,0,1-3.182-5.956l.9-7.426a12.324,12.324,0,0,1,2.284-5.957,7.882,7.882,0,0,0-3.835-.979H37.875a8.406,8.406,0,0,0-8.4,7.507l-.816,6.936a1.789,1.789,0,0,0,1.3,1.959c1.224.244,2.53.489,3.835.652Z"/>
    <circle class="cls-2" cx="40.895" cy="32.754" r="7.997"/>
    <path class="cls-2"
          d="M93.608,50.379a8.486,8.486,0,0,0-8.486-7.507H79.165a7.66,7.66,0,0,0-3.835.979,11.171,11.171,0,0,1,2.285,5.957l.9,7.426a5.577,5.577,0,0,1-3.182,5.875l.734,9.811a2.425,2.425,0,0,0,2.448,2.285h7.344a2.351,2.351,0,0,0,2.367-2.285L89.2,59.845a28.974,28.974,0,0,0,3.835-.653,1.673,1.673,0,0,0,1.306-1.958Z"/>
    <circle class="cls-2" cx="82.184" cy="32.754" r="7.997"/>
    <path class="cls-1"
          d="M74.677,57.723l-.9-7.425a9.163,9.163,0,0,0-9.057-8.079H58.357A9.1,9.1,0,0,0,49.3,50.3l-.9,7.425a1.824,1.824,0,0,0,1.469,2.04c1.387.327,2.774.49,4.161.735l.979,17.38a2.6,2.6,0,0,0,2.612,2.448h7.915a2.6,2.6,0,0,0,2.611-2.448l.979-17.38a37.123,37.123,0,0,0,4.162-.735A1.835,1.835,0,0,0,74.677,57.723Z"/>
    <circle class="cls-1" cx="61.539" cy="31.285" r="8.568"/>
    <path class="cls-a cls-bottom"
          d="M47.586,84.67,44.4,84.426a1.316,1.316,0,0,1-1.142-.816l-1.224-2.938a1.339,1.339,0,0,0-2.448,0L38.365,83.61a1.359,1.359,0,0,1-1.142.816l-3.183.244a1.351,1.351,0,0,0-.734,2.367l2.366,2.04a1.161,1.161,0,0,1,.408,1.305l-.734,3.1A1.343,1.343,0,0,0,37.3,94.952L40,93.32a1.4,1.4,0,0,1,1.387,0l2.693,1.632a1.316,1.316,0,0,0,1.958-1.469l-.734-3.1a1.5,1.5,0,0,1,.408-1.305l2.366-2.04A1.241,1.241,0,0,0,47.586,84.67Z"/>
    <path class="cls-b cls-bottom"
          d="M68.231,89.792l-3.183-.245a1.314,1.314,0,0,1-1.142-.816l-1.224-2.937a1.339,1.339,0,0,0-2.448,0l-1.143,2.937a1.354,1.354,0,0,1-1.142.816l-3.182.245a1.35,1.35,0,0,0-.735,2.366L56.4,94.2a1.162,1.162,0,0,1,.408,1.306l-.735,3.1a1.344,1.344,0,0,0,1.959,1.469l2.692-1.632a1.4,1.4,0,0,1,1.388,0l2.692,1.632a1.317,1.317,0,0,0,1.959-1.469l-.735-3.1a1.509,1.509,0,0,1,.408-1.306l2.367-2.04A1.262,1.262,0,0,0,68.231,89.792Z"/>
    <path class="cls-c cls-bottom"
          d="M88.875,84.67l-3.182-.244a1.313,1.313,0,0,1-1.142-.816l-1.224-2.938a1.339,1.339,0,0,0-2.448,0L79.655,83.61a1.36,1.36,0,0,1-1.143.816l-3.182.244a1.351,1.351,0,0,0-.735,2.367l2.367,2.04a1.161,1.161,0,0,1,.408,1.305l-.735,3.1a1.344,1.344,0,0,0,1.959,1.469l2.693-1.632a1.4,1.4,0,0,1,1.387,0l2.693,1.632a1.316,1.316,0,0,0,1.958-1.469l-.49-3.1a1.507,1.507,0,0,1,.408-1.305l2.367-2.04A1.317,1.317,0,0,0,88.875,84.67Z"/>
</svg>
