<svg id="utk-svg-management" xmlns="http://www.w3.org/2000/svg" viewBox="0 0 123 123">
    <title>competency model: management</title>
    <path class="cls-2"
          d="M100.3,85.25H95.8v-5.1a10.712,10.712,0,0,0-10.7-10.7H64.5V58.35c-1,.1-2,.1-3,.1a28.1,28.1,0,0,1-2.9-.1v11.1H37.9a10.8,10.8,0,0,0-10.8,10.7v5.1H22.7a4.653,4.653,0,0,0-4.6,4.6v14.5a4.653,4.653,0,0,0,4.6,4.6H37.3a4.567,4.567,0,0,0,4.5-4.6V89.85a4.567,4.567,0,0,0-4.5-4.6H33v-5.1a4.908,4.908,0,0,1,4.9-4.9H58.6v9.9H54.3a4.588,4.588,0,0,0-4.6,4.6v14.5a4.588,4.588,0,0,0,4.6,4.6H68.8a4.653,4.653,0,0,0,4.6-4.6V89.85a4.653,4.653,0,0,0-4.6-4.6H64.5v-9.9H85.2a4.908,4.908,0,0,1,4.9,4.9v5.1H85.8a4.653,4.653,0,0,0-4.6,4.6v14.5a4.653,4.653,0,0,0,4.6,4.6h14.6a4.567,4.567,0,0,0,4.5-4.6V89.85A4.526,4.526,0,0,0,100.3,85.25Z"/>
    <path class="cls-1"
          d="M49.5,51.95a58.136,58.136,0,0,0,12,1.2,58.136,58.136,0,0,0,12-1.2,1.887,1.887,0,0,0,1.5-2.1l-.9-7.6a9.386,9.386,0,0,0-9.3-8.2H58.3a9.386,9.386,0,0,0-9.3,8.2l-.9,7.6A1.817,1.817,0,0,0,49.5,51.95Z"/>
    <circle class="cls-1" cx="61.5" cy="22.75" r="8.8"/>
    <path class="cls-a cls-white cls-right"
          fill="white"
          d="M33.789,92.65l-5.5,6.7-2.3-2.8a1.632,1.632,0,1,0-2.5,2.1l3.6,4.3a1.5,1.5,0,0,0,2.4,0l6.8-8.2a1.632,1.632,0,0,0-2.5-2.1Z"/>
    <path class="cls-b cls-white cls-right"
          fill="white"
          d="M65.4,92.65l-5.5,6.7-2.3-2.8a1.632,1.632,0,1,0-2.5,2.1l3.6,4.3a1.5,1.5,0,0,0,2.4,0l6.8-8.2a1.632,1.632,0,0,0-2.5-2.1Z"/>
    <path class="cls-c cls-white cls-right"
          fill="white"
          d="M96.9,92.65l-5.5,6.7-2.3-2.8a1.632,1.632,0,1,0-2.5,2.1l3.6,4.3a1.5,1.5,0,0,0,2.4,0l6.8-8.2a1.632,1.632,0,0,0-2.5-2.1Z"/>
</svg>
