<svg id="Layer_1" data-name="Layer 1" xmlns="http://www.w3.org/2000/svg" viewBox="0 0 123 123">
    <title>competency model: specialized</title>
    <path class="cls-1"
          d="M79.382,59.442a2.192,2.192,0,0,0-1.2-3.848l-8.89-.721A2.185,2.185,0,0,1,67.45,53.51l-3.444-8.258a2.177,2.177,0,0,0-4,0L56.558,53.51a2.336,2.336,0,0,1-1.842,1.363l-8.809.8a2.175,2.175,0,0,0-1.2,3.848L51.433,65.3a2.23,2.23,0,0,1,.72,2.164l-2.082,8.658a2.135,2.135,0,0,0,3.2,2.325l7.608-4.65a2.243,2.243,0,0,1,2.242,0l7.608,4.65a2.124,2.124,0,0,0,3.2-2.325l-2.082-8.658a2.231,2.231,0,0,1,.721-2.164Z"/>
    <path class="cls-2"
          d="M62,35.953a2.411,2.411,0,0,0,2.4-2.405V26.333A2.411,2.411,0,0,0,62,23.927a2.465,2.465,0,0,0-2.4,2.406v7.215A2.465,2.465,0,0,0,62,35.953Z"/>
    <path class="cls-2"
          d="M40.221,43.489a2.439,2.439,0,0,0,1.682.721,2.3,2.3,0,0,0,1.681-.721,2.422,2.422,0,0,0,0-3.448l-5.125-5.13a2.436,2.436,0,0,0-3.444,3.447Z"/>
    <path class="cls-2"
          d="M35.976,61.847a2.41,2.41,0,0,0-2.4-2.405H26.366a2.361,2.361,0,0,0-2.4,2.405,2.41,2.41,0,0,0,2.4,2.4h7.208A2.464,2.464,0,0,0,35.976,61.847Z"/>
    <path class="cls-2"
          d="M40.061,80.206l-5.126,5.131A2.409,2.409,0,1,0,38.3,88.784l5.125-5.131a2.421,2.421,0,0,0,0-3.447A2.467,2.467,0,0,0,40.061,80.206Z"/>
    <path class="cls-2"
          d="M61.844,87.9a2.411,2.411,0,0,0-2.4,2.405v7.215a2.41,2.41,0,0,0,2.4,2.405,2.464,2.464,0,0,0,2.4-2.405V90.307A2.465,2.465,0,0,0,61.844,87.9Z"/>
    <path class="cls-2" d="M83.627,80.366a2.437,2.437,0,0,0-3.444,3.448l5.125,5.13A2.408,2.408,0,1,0,88.672,85.5Z"/>
    <path class="cls-2"
          d="M97.561,59.6H90.354a2.41,2.41,0,0,0-2.4,2.405,2.465,2.465,0,0,0,2.4,2.4h7.207a2.411,2.411,0,0,0,2.4-2.4A2.464,2.464,0,0,0,97.561,59.6Z"/>
    <path class="cls-2"
          d="M82.025,44.29a2.3,2.3,0,0,0,1.682-.721l5.125-5.131a2.436,2.436,0,1,0-3.444-3.447L80.343,40.2a2.421,2.421,0,0,0,0,3.447A2.346,2.346,0,0,0,82.025,44.29Z"/>
</svg>
